<svg xmlns="http://www.w3.org/2000/svg">
  <symbol id="icon-questionmark" viewBox="0 0 40 40">
    <path d="M15 33.3335H8.33333C7.41667 33.3335 6.63194 33.0071 5.97917 32.3543C5.32639 31.7016 5 30.9168 5 30.0002V6.66683C5 5.75016 5.32639 4.96544 5.97917 4.31266C6.63194 3.65989 7.41667 3.3335 8.33333 3.3335H31.6667C32.5833 3.3335 33.3681 3.65989 34.0208 4.31266C34.6736 4.96544 35 5.75016 35 6.66683V30.0002C35 30.9168 34.6736 31.7016 34.0208 32.3543C33.3681 33.0071 32.5833 33.3335 31.6667 33.3335H25L21.1667 37.1668C20.8333 37.5002 20.4444 37.6668 20 37.6668C19.5556 37.6668 19.1667 37.5002 18.8333 37.1668L15 33.3335ZM8.33333 30.0002H16.3333L20 33.6668L23.6667 30.0002H31.6667V6.66683H8.33333V30.0002ZM19.8333 28.3335C20.4167 28.3335 20.9097 28.1321 21.3125 27.7293C21.7153 27.3266 21.9167 26.8335 21.9167 26.2502C21.9167 25.6668 21.7153 25.1738 21.3125 24.771C20.9097 24.3682 20.4167 24.1668 19.8333 24.1668C19.25 24.1668 18.7569 24.3682 18.3542 24.771C17.9514 25.1738 17.75 25.6668 17.75 26.2502C17.75 26.8335 17.9514 27.3266 18.3542 27.7293C18.7569 28.1321 19.25 28.3335 19.8333 28.3335ZM22.75 13.3335C22.75 13.8057 22.5972 14.3127 22.2917 14.8543C21.9861 15.396 21.4722 15.9863 20.75 16.6252C20.2778 17.0418 19.8958 17.4377 19.6042 17.8127C19.3125 18.1877 19.0694 18.5696 18.875 18.9585C18.7639 19.1807 18.6806 19.4029 18.625 19.6252C18.5694 19.8474 18.5139 20.0974 18.4583 20.3752C18.4028 20.7918 18.5139 21.1529 18.7917 21.4585C19.0694 21.7641 19.4306 21.9168 19.875 21.9168C20.2639 21.9168 20.6111 21.7779 20.9167 21.5002C21.2222 21.2224 21.4306 20.8474 21.5417 20.3752C21.625 19.9863 21.7847 19.6252 22.0208 19.2918C22.2569 18.9585 22.6389 18.5279 23.1667 18.0002C24.1389 17.0279 24.8264 16.2085 25.2292 15.5418C25.6319 14.8752 25.8333 14.1391 25.8333 13.3335C25.8333 11.8335 25.3264 10.6252 24.3125 9.7085C23.2986 8.79183 21.9167 8.3335 20.1667 8.3335C18.9167 8.3335 17.8333 8.59739 16.9167 9.12516C16 9.65294 15.2639 10.3891 14.7083 11.3335C14.5139 11.6668 14.5069 12.0141 14.6875 12.3752C14.8681 12.7363 15.1528 12.9863 15.5417 13.1252C15.9028 13.2641 16.2639 13.2641 16.625 13.1252C16.9861 12.9863 17.2778 12.7641 17.5 12.4585C17.8056 12.0696 18.1806 11.7571 18.625 11.521C19.0694 11.2849 19.5833 11.1668 20.1667 11.1668C20.8889 11.1668 21.5 11.3682 22 11.771C22.5 12.1738 22.75 12.6946 22.75 13.3335Z"/>
  </symbol>

    <symbol id="icon-rocket" viewBox="0 0 40 40">
        <path d="M11.8327 18.9172C12.2216 18.1394 12.6243 17.3894 13.041 16.6672C13.4577 15.945 13.916 15.2227 14.416 14.5005L12.0827 14.0422L8.58268 17.5422L11.8327 18.9172ZM31.916 7.45885C29.9716 7.51441 27.8952 8.08385 25.6868 9.16719C23.4785 10.2505 21.4716 11.695 19.666 13.5005C18.4993 14.6672 17.4577 15.9172 16.541 17.2505C15.6243 18.5839 14.9438 19.8339 14.4993 21.0005L19.2493 25.7089C20.416 25.2644 21.666 24.5839 22.9993 23.6672C24.3327 22.7505 25.5827 21.7089 26.7493 20.5422C28.5549 18.7366 29.9994 16.7366 31.0827 14.5422C32.166 12.3477 32.7355 10.2783 32.791 8.33385C32.791 8.22274 32.7702 8.11163 32.7285 8.00052C32.6868 7.88941 32.6244 7.79219 32.541 7.70885C32.4577 7.62552 32.3605 7.56302 32.2494 7.52135C32.1382 7.47969 32.0271 7.45885 31.916 7.45885ZM22.7493 17.4589C22.1105 16.82 21.791 16.0352 21.791 15.1047C21.791 14.1741 22.1105 13.3894 22.7493 12.7505C23.3882 12.1116 24.1799 11.7922 25.1244 11.7922C26.0688 11.7922 26.8605 12.1116 27.4993 12.7505C28.1382 13.3894 28.4577 14.1741 28.4577 15.1047C28.4577 16.0352 28.1382 16.82 27.4993 17.4589C26.8605 18.0977 26.0688 18.4172 25.1244 18.4172C24.1799 18.4172 23.3882 18.0977 22.7493 17.4589ZM21.3327 28.3755L22.7077 31.6672L26.2077 28.1672L25.7494 25.8339C25.0271 26.3339 24.3049 26.7852 23.5827 27.188C22.8605 27.5908 22.1105 27.9866 21.3327 28.3755ZM35.9577 6.12552C36.1799 9.18108 35.6799 12.1602 34.4577 15.063C33.2355 17.9658 31.3049 20.7366 28.666 23.3755L29.4994 27.5005C29.6105 28.0561 29.5827 28.5977 29.416 29.1255C29.2494 29.6533 28.9716 30.1116 28.5827 30.5005L23.3327 35.7505C22.916 36.1672 22.416 36.3269 21.8327 36.2297C21.2493 36.1325 20.8466 35.8061 20.6243 35.2505L18.0827 29.2922L10.9577 22.1672L4.99935 19.6255C4.44379 19.4033 4.11046 19.0005 3.99935 18.4172C3.88824 17.8339 4.04102 17.3339 4.45768 16.9172L9.70768 11.6672C10.0966 11.2783 10.5618 11.0005 11.1035 10.8339C11.6452 10.6672 12.1938 10.6394 12.7493 10.7505L16.8743 11.5839C19.5132 8.94497 22.2841 7.01441 25.1868 5.79219C28.0896 4.56997 31.0688 4.06997 34.1244 4.29219C34.3466 4.31997 34.5688 4.38247 34.791 4.47969C35.0132 4.57691 35.2077 4.70885 35.3744 4.87552C35.541 5.04219 35.673 5.23663 35.7702 5.45885C35.8674 5.68108 35.9299 5.9033 35.9577 6.12552ZM6.54102 26.6255C7.51324 25.6533 8.70074 25.1602 10.1035 25.1464C11.5063 25.1325 12.6938 25.6116 13.666 26.5839C14.6382 27.5561 15.1174 28.7436 15.1035 30.1464C15.0896 31.5491 14.5966 32.7366 13.6243 33.7089C12.291 35.0422 10.7146 35.8339 8.89518 36.0839C7.07574 36.3339 5.24935 36.5839 3.41602 36.8339C3.66602 35.0005 3.91602 33.1741 4.16602 31.3547C4.41602 29.5352 5.20768 27.9589 6.54102 26.6255ZM8.91602 28.9589C8.44379 29.4311 8.1174 30.0005 7.93685 30.6672C7.75629 31.3339 7.61046 32.0144 7.49935 32.7089C8.19379 32.5977 8.87435 32.4589 9.54102 32.2922C10.2077 32.1255 10.7771 31.8061 11.2493 31.3339C11.5827 31.0005 11.7632 30.5977 11.791 30.1255C11.8188 29.6533 11.666 29.2505 11.3327 28.9172C10.9993 28.5839 10.5966 28.4241 10.1243 28.438C9.65213 28.4519 9.24935 28.6255 8.91602 28.9589Z"/>
    </symbol>

    <symbol id="icon-home" viewBox="0 0 40 40">
        <path d="M8.375 33.1143H14.1875V23.4C14.1875 22.8495 14.3732 22.3881 14.7445 22.0157C15.1159 21.6433 15.576 21.4571 16.125 21.4571H23.875C24.424 21.4571 24.8841 21.6433 25.2555 22.0157C25.6268 22.3881 25.8125 22.8495 25.8125 23.4V33.1143H31.625V15.6286L20 6.88571L8.375 15.6286V33.1143ZM4.5 33.1143V15.6286C4.5 15.0133 4.63724 14.4305 4.91172 13.88C5.1862 13.3295 5.56563 12.8762 6.05 12.52L17.675 3.77714C18.3531 3.25905 19.1281 3 20 3C20.8719 3 21.6469 3.25905 22.325 3.77714L33.95 12.52C34.4344 12.8762 34.8138 13.3295 35.0883 13.88C35.3628 14.4305 35.5 15.0133 35.5 15.6286V33.1143C35.5 34.1829 35.1206 35.0976 34.3617 35.8586C33.6029 36.6195 32.6906 37 31.625 37H23.875C23.326 37 22.8659 36.8138 22.4945 36.4414C22.1232 36.069 21.9375 35.6076 21.9375 35.0571V25.3429H18.0625V35.0571C18.0625 35.6076 17.8768 36.069 17.5055 36.4414C17.1341 36.8138 16.674 37 16.125 37H8.375C7.30938 37 6.39714 36.6195 5.63828 35.8586C4.87943 35.0976 4.5 34.1829 4.5 33.1143Z"/>
    </symbol>

    <symbol id="icon-person" viewBox="0 0 40 40">
        <path d="M15 33.3335H8.33333C7.41667 33.3335 6.63194 33.0071 5.97917 32.3543C5.32639 31.7016 5 30.9168 5 30.0002V6.66683C5 5.75016 5.32639 4.96544 5.97917 4.31266C6.63194 3.65989 7.41667 3.3335 8.33333 3.3335H31.6667C32.5833 3.3335 33.3681 3.65989 34.0208 4.31266C34.6736 4.96544 35 5.75016 35 6.66683V30.0002C35 30.9168 34.6736 31.7016 34.0208 32.3543C33.3681 33.0071 32.5833 33.3335 31.6667 33.3335H25L21.1667 37.1668C21 37.3335 20.8194 37.4516 20.625 37.521C20.4306 37.5904 20.2222 37.6252 20 37.6252C19.7778 37.6252 19.5694 37.5904 19.375 37.521C19.1806 37.4516 19 37.3335 18.8333 37.1668L15 33.3335ZM8.33333 28.0835C9.83333 26.6113 11.5764 25.4516 13.5625 24.6043C15.5486 23.7571 17.6944 23.3335 20 23.3335C22.3056 23.3335 24.4514 23.7571 26.4375 24.6043C28.4236 25.4516 30.1667 26.6113 31.6667 28.0835V6.66683H8.33333V28.0835ZM20 20.0002C21.6111 20.0002 22.9861 19.4307 24.125 18.2918C25.2639 17.1529 25.8333 15.7779 25.8333 14.1668C25.8333 12.5557 25.2639 11.1807 24.125 10.0418C22.9861 8.90294 21.6111 8.3335 20 8.3335C18.3889 8.3335 17.0139 8.90294 15.875 10.0418C14.7361 11.1807 14.1667 12.5557 14.1667 14.1668C14.1667 15.7779 14.7361 17.1529 15.875 18.2918C17.0139 19.4307 18.3889 20.0002 20 20.0002ZM11.6667 30.0002H28.3333V29.5835C27.1667 28.6113 25.875 27.8821 24.4583 27.396C23.0417 26.9099 21.5556 26.6668 20 26.6668C18.4444 26.6668 16.9583 26.9099 15.5417 27.396C14.125 27.8821 12.8333 28.6113 11.6667 29.5835V30.0002ZM20 16.6668C19.3056 16.6668 18.7153 16.4238 18.2292 15.9377C17.7431 15.4516 17.5 14.8613 17.5 14.1668C17.5 13.4724 17.7431 12.8821 18.2292 12.396C18.7153 11.9099 19.3056 11.6668 20 11.6668C20.6944 11.6668 21.2847 11.9099 21.7708 12.396C22.2569 12.8821 22.5 13.4724 22.5 14.1668C22.5 14.8613 22.2569 15.4516 21.7708 15.9377C21.2847 16.4238 20.6944 16.6668 20 16.6668Z"/>
    </symbol>

    <symbol id="icon-tiktok" viewBox="0 0 24 24">
        <path fill="var(--gelb)" d="M18.75 0H5.25C2.35051 0 0 2.35051 0 5.25V18.75C0 21.6495 2.35051 24 5.25 24H18.75C21.6495 24 24 21.6495 24 18.75V5.25C24 2.35051 21.6495 0 18.75 0Z"/>
        <path fill="var(--türkis)" d="M18.3278 6.43644C18.1966 6.36862 18.0688 6.29427 17.945 6.21367C17.5851 5.97567 17.255 5.69524 16.962 5.37842C16.2288 4.53954 15.955 3.68849 15.8541 3.09267H15.8582C15.7739 2.59807 15.8088 2.27808 15.814 2.27808H12.4747V15.1906C12.4747 15.364 12.4747 15.5353 12.4674 15.7047C12.4674 15.7257 12.4654 15.7452 12.4642 15.7678C12.4642 15.7772 12.4642 15.7869 12.4621 15.7966C12.4621 15.799 12.4621 15.8015 12.4621 15.8039C12.4269 16.2672 12.2784 16.7147 12.0297 17.1072C11.7809 17.4996 11.4395 17.8249 11.0355 18.0544C10.6145 18.294 10.1383 18.4196 9.65384 18.419C8.09799 18.419 6.83704 17.1503 6.83704 15.5835C6.83704 14.0168 8.09799 12.7481 9.65384 12.7481C9.94836 12.7478 10.2411 12.7942 10.5211 12.8854L10.5251 9.48534C9.67506 9.37554 8.81144 9.44309 7.98879 9.68374C7.16611 9.92442 6.40226 10.333 5.74539 10.8836C5.16984 11.3837 4.68596 11.9804 4.31554 12.6468C4.17456 12.8899 3.64271 13.8665 3.57831 15.4515C3.53781 16.3511 3.80799 17.2832 3.93679 17.6684V17.6765C4.01781 17.9033 4.33174 18.6774 4.84334 19.33C5.25586 19.8534 5.74324 20.3132 6.28981 20.6946V20.6865L6.29791 20.6946C7.91451 21.7931 9.70691 21.721 9.70691 21.721C10.0172 21.7085 11.0566 21.721 12.2369 21.1616C13.5461 20.5415 14.2914 19.6175 14.2914 19.6175C14.7675 19.0655 15.1461 18.4363 15.411 17.7571C15.7132 16.9628 15.814 16.0101 15.814 15.6293V8.77892C15.8545 8.80322 16.3941 9.16007 16.3941 9.16007C16.3941 9.16007 17.1714 9.65829 18.3841 9.98277C19.2542 10.2136 20.4265 10.2622 20.4265 10.2622V6.94722C20.0157 6.99177 19.1817 6.86217 18.3278 6.43644Z"/>
    </symbol>

    <symbol id="icon-youtube" viewBox="0 0 33 24">
        <path fill="var(--gelb)" d="M0 7.95209C0 3.85803 3.09372 0.440935 7.18267 0.236139C9.80403 0.104848 12.9947 0 16.5 0C20.0053 0 23.196 0.104848 25.8173 0.236139C29.9063 0.440935 33 3.85803 33 7.95209V16.136C33 20.1927 29.9615 23.5767 25.9097 23.7757C23.3496 23.9014 20.1713 24 16.5 24C12.8287 24 9.65037 23.9014 7.09028 23.7757C3.03847 23.5767 0 20.1927 0 16.136V7.95209Z"/>
        <path fill="var(--türkis)" d="M23 12L12.5 18.0622L12.5 5.93782L23 12Z"/>
    </symbol>
    
    <symbol id="icon-facebook" viewBox="0 0 24 24">
        <circle fill="var(--gelb)" cx="12" cy="12" r="12"/>
        <path fill="var(--türkis)" d="M9.17899 15.3846V22.3077V23H13.2595V15.3846H16.3199L17 11.923H13.2595C13.1462 11.2365 13.1233 9.63148 13.9394 8.8077C14.7555 7.98392 16.3199 8.3471 17 8.46155V5.15153C16.0932 5.03712 14.2794 4.877 12.9192 5.15159C11.219 5.49483 9.85895 6.73946 9.51891 7.76918C9.24687 8.59296 9.17899 11.0077 9.17899 11.923H7V15.3846H9.17899Z"/>
    </symbol>

    <symbol id="icon-instagram" viewBox="0 0 24 24">
        <path fill="var(--gelb)" d="M12.0055 0.181763C7.07078 0.181763 5.62756 0.186854 5.34702 0.210126C4.33432 0.294308 3.70416 0.453763 3.01764 0.795581C2.48856 1.05831 2.0713 1.36285 1.65949 1.78976C0.909518 2.56831 0.454986 3.52613 0.290445 4.66467C0.210448 5.2174 0.187176 5.33013 0.182449 8.1534C0.180631 9.09449 0.182449 10.333 0.182449 11.9943C0.182449 16.9252 0.187903 18.367 0.211539 18.647C0.293354 19.6325 0.447895 20.2525 0.775158 20.9307C1.40059 22.2289 2.5951 23.2034 4.00233 23.567C4.48959 23.6925 5.02776 23.7616 5.71864 23.7943C6.01136 23.807 8.99491 23.8161 11.9803 23.8161C14.9656 23.8161 17.951 23.8125 18.2364 23.7979C19.0364 23.7603 19.501 23.6979 20.0146 23.5652C21.4309 23.1998 22.6036 22.2398 23.2417 20.9234C23.5626 20.2616 23.7254 19.6179 23.799 18.6839C23.815 18.4803 23.8217 15.2336 23.8217 11.9912C23.8217 8.74831 23.8145 5.50758 23.7985 5.30395C23.7239 4.35485 23.5612 3.71667 23.2299 3.04213C22.9581 2.48994 22.6563 2.07758 22.2181 1.65594C21.4362 0.909035 20.4798 0.45449 19.3402 0.290126C18.7881 0.210308 18.6781 0.186672 15.8527 0.181763H12.0055Z"/>
        <path fill="var(--türkis)" d="M12.0012 3.27271C9.63106 3.27271 9.33362 3.28307 8.40274 3.32543C7.47367 3.36798 6.83951 3.51507 6.28462 3.73089C5.71064 3.9538 5.22374 4.25198 4.73867 4.73725C4.25323 5.22234 3.95505 5.70925 3.73142 6.28307C3.51507 6.83816 3.3678 7.47252 3.32598 8.40125C3.28435 9.33216 3.27344 9.6298 3.27344 12C3.27344 14.3702 3.28398 14.6667 3.32616 15.5976C3.36889 16.5267 3.51598 17.1609 3.73161 17.7158C3.95469 18.2898 4.25286 18.7767 4.73812 19.2618C5.22301 19.7473 5.70991 20.0462 6.28353 20.2691C6.83878 20.4849 7.47313 20.632 8.40201 20.6745C9.33289 20.7169 9.63015 20.7273 12.0001 20.7273C14.3704 20.7273 14.6669 20.7169 15.5978 20.6745C16.5269 20.632 17.1617 20.4849 17.717 20.2691C18.2908 20.0462 18.777 19.7473 19.2619 19.2618C19.7473 18.7767 20.0455 18.2898 20.2691 17.716C20.4836 17.1609 20.6309 16.5265 20.6745 15.5978C20.7164 14.6669 20.7273 14.3702 20.7273 12C20.7273 9.6298 20.7164 9.33234 20.6745 8.40143C20.6309 7.47234 20.4836 6.83816 20.2691 6.28325C20.0455 5.70925 19.7473 5.22234 19.2619 4.73725C18.7764 4.2518 18.291 3.95361 17.7165 3.73089C17.1601 3.51507 16.5256 3.36798 15.5965 3.32543C14.6656 3.28307 14.3693 3.27271 11.9984 3.27271H12.0012ZM11.2183 4.84543C11.4506 4.84507 11.7099 4.84543 12.0012 4.84543C14.3313 4.84543 14.6075 4.8538 15.5276 4.89561C16.3785 4.93452 16.8403 5.07671 17.1479 5.19616C17.5552 5.35434 17.8455 5.54343 18.1508 5.84889C18.4563 6.15434 18.6453 6.44525 18.8039 6.85252C18.9233 7.1598 19.0657 7.62161 19.1044 8.47252C19.1462 9.39252 19.1553 9.66889 19.1553 11.998C19.1553 14.3271 19.1462 14.6034 19.1044 15.5234C19.0655 16.3743 18.9233 16.8362 18.8039 17.1434C18.6457 17.5507 18.4563 17.8407 18.1508 18.146C17.8454 18.4514 17.5554 18.6405 17.1479 18.7987C16.8407 18.9187 16.3785 19.0605 15.5276 19.0994C14.6076 19.1413 14.3313 19.1503 12.0012 19.1503C9.67088 19.1503 9.39471 19.1413 8.47473 19.0994C7.62385 19.0602 7.16205 18.918 6.85424 18.7985C6.44698 18.6403 6.15608 18.4513 5.85063 18.1458C5.54519 17.8403 5.3561 17.5502 5.19756 17.1427C5.07811 16.8354 4.93575 16.3736 4.89702 15.5227C4.85521 14.6027 4.84684 14.3263 4.84684 11.9958C4.84684 9.66525 4.85521 9.39034 4.89702 8.47034C4.93593 7.61943 5.07811 7.15761 5.19756 6.84998C5.35574 6.4427 5.54519 6.1518 5.85063 5.84634C6.15608 5.54089 6.44698 5.3518 6.85424 5.19325C7.16186 5.07325 7.62385 4.93143 8.47473 4.89234C9.2798 4.85598 9.59179 4.84507 11.2183 4.84325V4.84543ZM16.6596 6.29452C16.0814 6.29452 15.6123 6.76307 15.6123 7.34143C15.6123 7.91961 16.0814 8.38871 16.6596 8.38871C17.2377 8.38871 17.7068 7.91961 17.7068 7.34143C17.7068 6.76325 17.2377 6.29416 16.6596 6.29416V6.29452ZM12.0012 7.51816C9.52616 7.51816 7.51949 9.52489 7.51949 12C7.51949 14.4751 9.52616 16.4809 12.0012 16.4809C14.4762 16.4809 16.4821 14.4751 16.4821 12C16.4821 9.52489 14.4762 7.51816 12.0012 7.51816ZM12.0012 9.09089C13.6077 9.09089 14.9102 10.3933 14.9102 12C14.9102 13.6065 13.6077 14.9091 12.0012 14.9091C10.3945 14.9091 9.09217 13.6065 9.09217 12C9.09217 10.3933 10.3945 9.09089 12.0012 9.09089Z"/>
    </symbol>

    <symbol id="icon-date" viewBox="0 0 16 18">
        <path d="M1.77778 18C1.28889 18 0.87037 17.8237 0.522222 17.4713C0.174074 17.1187 0 16.695 0 16.2V3.6C0 3.105 0.174074 2.68125 0.522222 2.32875C0.87037 1.97625 1.28889 1.8 1.77778 1.8H2.66667V0.9C2.66667 0.645 2.75185 0.43125 2.92222 0.25875C3.09259 0.08625 3.3037 0 3.55556 0C3.80741 0 4.01852 0.08625 4.18889 0.25875C4.35926 0.43125 4.44444 0.645 4.44444 0.9V1.8H11.5556V0.9C11.5556 0.645 11.6407 0.43125 11.8111 0.25875C11.9815 0.08625 12.1926 0 12.4444 0C12.6963 0 12.9074 0.08625 13.0778 0.25875C13.2481 0.43125 13.3333 0.645 13.3333 0.9V1.8H14.2222C14.7111 1.8 15.1296 1.97625 15.4778 2.32875C15.8259 2.68125 16 3.105 16 3.6V16.2C16 16.695 15.8259 17.1187 15.4778 17.4713C15.1296 17.8237 14.7111 18 14.2222 18H1.77778ZM1.77778 16.2H14.2222V7.2H1.77778V16.2ZM1.77778 5.4H14.2222V3.6H1.77778V5.4ZM8 10.8C7.74815 10.8 7.53704 10.7137 7.36667 10.5413C7.1963 10.3688 7.11111 10.155 7.11111 9.9C7.11111 9.645 7.1963 9.43125 7.36667 9.25875C7.53704 9.08625 7.74815 9 8 9C8.25185 9 8.46296 9.08625 8.63333 9.25875C8.8037 9.43125 8.88889 9.645 8.88889 9.9C8.88889 10.155 8.8037 10.3688 8.63333 10.5413C8.46296 10.7137 8.25185 10.8 8 10.8ZM4.44444 10.8C4.19259 10.8 3.98148 10.7137 3.81111 10.5413C3.64074 10.3688 3.55556 10.155 3.55556 9.9C3.55556 9.645 3.64074 9.43125 3.81111 9.25875C3.98148 9.08625 4.19259 9 4.44444 9C4.6963 9 4.90741 9.08625 5.07778 9.25875C5.24815 9.43125 5.33333 9.645 5.33333 9.9C5.33333 10.155 5.24815 10.3688 5.07778 10.5413C4.90741 10.7137 4.6963 10.8 4.44444 10.8ZM11.5556 10.8C11.3037 10.8 11.0926 10.7137 10.9222 10.5413C10.7519 10.3688 10.6667 10.155 10.6667 9.9C10.6667 9.645 10.7519 9.43125 10.9222 9.25875C11.0926 9.08625 11.3037 9 11.5556 9C11.8074 9 12.0185 9.08625 12.1889 9.25875C12.3593 9.43125 12.4444 9.645 12.4444 9.9C12.4444 10.155 12.3593 10.3688 12.1889 10.5413C12.0185 10.7137 11.8074 10.8 11.5556 10.8ZM8 14.4C7.74815 14.4 7.53704 14.3138 7.36667 14.1413C7.1963 13.9688 7.11111 13.755 7.11111 13.5C7.11111 13.245 7.1963 13.0312 7.36667 12.8588C7.53704 12.6862 7.74815 12.6 8 12.6C8.25185 12.6 8.46296 12.6862 8.63333 12.8588C8.8037 13.0312 8.88889 13.245 8.88889 13.5C8.88889 13.755 8.8037 13.9688 8.63333 14.1413C8.46296 14.3138 8.25185 14.4 8 14.4ZM4.44444 14.4C4.19259 14.4 3.98148 14.3138 3.81111 14.1413C3.64074 13.9688 3.55556 13.755 3.55556 13.5C3.55556 13.245 3.64074 13.0312 3.81111 12.8588C3.98148 12.6862 4.19259 12.6 4.44444 12.6C4.6963 12.6 4.90741 12.6862 5.07778 12.8588C5.24815 13.0312 5.33333 13.245 5.33333 13.5C5.33333 13.755 5.24815 13.9688 5.07778 14.1413C4.90741 14.3138 4.6963 14.4 4.44444 14.4ZM11.5556 14.4C11.3037 14.4 11.0926 14.3138 10.9222 14.1413C10.7519 13.9688 10.6667 13.755 10.6667 13.5C10.6667 13.245 10.7519 13.0312 10.9222 12.8588C11.0926 12.6862 11.3037 12.6 11.5556 12.6C11.8074 12.6 12.0185 12.6862 12.1889 12.8588C12.3593 13.0312 12.4444 13.245 12.4444 13.5C12.4444 13.755 12.3593 13.9688 12.1889 14.1413C12.0185 14.3138 11.8074 14.4 11.5556 14.4Z"/>
    </symbol>

    <symbol id="icon-reading-time" viewBox="0 0 20 7">
        <path d="M4.27062 7C3.65833 7 3.108 6.80313 2.61963 6.40938C2.13126 6.01562 1.82147 5.5125 1.69027 4.9L1.05611 1.96875H0.968644C0.720814 1.99792 0.505785 1.93229 0.323556 1.77188C0.141328 1.61146 0.0356357 1.40729 0.00647923 1.15938C-0.0226773 0.911458 0.0465694 0.7 0.214219 0.525C0.381869 0.35 0.58961 0.247917 0.83744 0.21875C1.74129 0.145833 2.52852 0.0911458 3.19912 0.0546875C3.86972 0.0182292 4.482 0 5.03598 0C5.98357 0 6.74892 0.04375 7.33205 0.13125C7.91518 0.21875 8.44 0.371875 8.90651 0.590625C9.1106 0.692708 9.30376 0.765625 9.48599 0.809375C9.66822 0.853125 9.83951 0.875 9.99988 0.875C10.1602 0.875 10.317 0.853125 10.47 0.809375C10.6231 0.765625 10.8017 0.7 11.0058 0.6125C11.4869 0.39375 12.0408 0.236979 12.6677 0.142188C13.2946 0.0473958 14.1255 0 15.1606 0C15.8312 0 16.5382 0.0182292 17.2817 0.0546875C18.0252 0.0911458 18.6594 0.138542 19.1842 0.196875C19.432 0.226042 19.6361 0.328125 19.7965 0.503125C19.9568 0.678125 20.0224 0.889583 19.9933 1.1375C19.9641 1.38542 19.8621 1.58958 19.6871 1.75C19.5122 1.91042 19.3008 1.97604 19.053 1.94688H18.9655L18.3095 4.92188C18.1783 5.53438 17.8721 6.03385 17.3911 6.42031C16.91 6.80677 16.3633 7 15.751 7H13.8048C13.1925 7 12.6531 6.81406 12.1866 6.44219C11.7201 6.07031 11.414 5.59271 11.2682 5.00938L10.6778 2.66875H9.34385L8.75343 5.00938C8.59307 5.60729 8.27964 6.08854 7.81314 6.45312C7.34663 6.81771 6.81453 7 6.21682 7H4.27062ZM3.39592 4.55C3.43966 4.75417 3.54171 4.92188 3.70207 5.05312C3.86243 5.18438 4.04466 5.25 4.24875 5.25H6.19495C6.39905 5.25 6.58127 5.18802 6.74163 5.06406C6.902 4.9401 7.00404 4.78333 7.04778 4.59375L7.72567 1.94688C7.33205 1.87396 6.88742 1.82656 6.39176 1.80469C5.8961 1.78281 5.44417 1.77188 5.03598 1.77188C4.70068 1.77188 4.33987 1.77552 3.95354 1.78281C3.56722 1.7901 3.20641 1.80833 2.87111 1.8375L3.39592 4.55ZM12.952 4.59375C12.9957 4.78333 13.0978 4.9401 13.2581 5.06406C13.4185 5.18802 13.6007 5.25 13.8048 5.25H15.751C15.9551 5.25 16.1373 5.18438 16.2977 5.05312C16.458 4.92188 16.5601 4.75417 16.6038 4.55L17.1724 1.81563C16.8808 1.80104 16.5455 1.7901 16.1665 1.78281C15.7874 1.77552 15.4521 1.77188 15.1606 1.77188C14.7232 1.77188 14.2385 1.78281 13.7064 1.80469C13.1743 1.82656 12.6969 1.87396 12.2741 1.94688L12.952 4.59375Z"/>
    </symbol>

    <symbol id="icon-read" viewBox="0 0 20 14">
        <path d="M10 11.2C11.1655 11.2 12.1562 10.7917 12.972 9.975C13.7879 9.15833 14.1958 8.16667 14.1958 7C14.1958 5.83333 13.7879 4.84167 12.972 4.025C12.1562 3.20833 11.1655 2.8 10 2.8C8.8345 2.8 7.84382 3.20833 7.02797 4.025C6.21212 4.84167 5.8042 5.83333 5.8042 7C5.8042 8.16667 6.21212 9.15833 7.02797 9.975C7.84382 10.7917 8.8345 11.2 10 11.2ZM10 9.52C9.3007 9.52 8.70629 9.275 8.21678 8.785C7.72727 8.295 7.48252 7.7 7.48252 7C7.48252 6.3 7.72727 5.705 8.21678 5.215C8.70629 4.725 9.3007 4.48 10 4.48C10.6993 4.48 11.2937 4.725 11.7832 5.215C12.2727 5.705 12.5175 6.3 12.5175 7C12.5175 7.7 12.2727 8.295 11.7832 8.785C11.2937 9.275 10.6993 9.52 10 9.52ZM10 14C7.91764 14 6.01787 13.44 4.3007 12.32C2.58353 11.2 1.22766 9.72222 0.2331 7.88667C0.1554 7.74667 0.0971251 7.60278 0.0582751 7.455C0.019425 7.30722 0 7.15556 0 7C0 6.84444 0.019425 6.69278 0.0582751 6.545C0.0971251 6.39722 0.1554 6.25333 0.2331 6.11333C1.22766 4.27778 2.58353 2.8 4.3007 1.68C6.01787 0.56 7.91764 0 10 0C12.0824 0 13.9821 0.56 15.6993 1.68C17.4165 2.8 18.7723 4.27778 19.7669 6.11333C19.8446 6.25333 19.9029 6.39722 19.9417 6.545C19.9806 6.69278 20 6.84444 20 7C20 7.15556 19.9806 7.30722 19.9417 7.455C19.9029 7.60278 19.8446 7.74667 19.7669 7.88667C18.7723 9.72222 17.4165 11.2 15.6993 12.32C13.9821 13.44 12.0824 14 10 14ZM10 12.1333C11.756 12.1333 13.3683 11.6706 14.8368 10.745C16.3054 9.81944 17.4281 8.57111 18.2051 7C17.4281 5.42889 16.3054 4.18056 14.8368 3.255C13.3683 2.32944 11.756 1.86667 10 1.86667C8.24398 1.86667 6.6317 2.32944 5.16317 3.255C3.69464 4.18056 2.57187 5.42889 1.79487 7C2.57187 8.57111 3.69464 9.81944 5.16317 10.745C6.6317 11.6706 8.24398 12.1333 10 12.1333Z"/>
    </symbol>

    <symbol id="icon-shared" viewBox="0 0 16 18">
        <path d="M13.3333 18C12.5926 18 11.963 17.7375 11.4444 17.2125C10.9259 16.6875 10.6667 16.05 10.6667 15.3C10.6667 15.21 10.6889 15 10.7333 14.67L4.48889 10.98C4.25185 11.205 3.97778 11.3813 3.66667 11.5087C3.35556 11.6363 3.02222 11.7 2.66667 11.7C1.92593 11.7 1.2963 11.4375 0.777778 10.9125C0.259259 10.3875 0 9.75 0 9C0 8.25 0.259259 7.6125 0.777778 7.0875C1.2963 6.5625 1.92593 6.3 2.66667 6.3C3.02222 6.3 3.35556 6.36375 3.66667 6.49125C3.97778 6.61875 4.25185 6.795 4.48889 7.02L10.7333 3.33C10.7037 3.225 10.6852 3.12375 10.6778 3.02625C10.6704 2.92875 10.6667 2.82 10.6667 2.7C10.6667 1.95 10.9259 1.3125 11.4444 0.7875C11.963 0.2625 12.5926 0 13.3333 0C14.0741 0 14.7037 0.2625 15.2222 0.7875C15.7407 1.3125 16 1.95 16 2.7C16 3.45 15.7407 4.0875 15.2222 4.6125C14.7037 5.1375 14.0741 5.4 13.3333 5.4C12.9778 5.4 12.6444 5.33625 12.3333 5.20875C12.0222 5.08125 11.7481 4.905 11.5111 4.68L5.26667 8.37C5.2963 8.475 5.31482 8.57625 5.32222 8.67375C5.32963 8.77125 5.33333 8.88 5.33333 9C5.33333 9.12 5.32963 9.22875 5.32222 9.32625C5.31482 9.42375 5.2963 9.525 5.26667 9.63L11.5111 13.32C11.7481 13.095 12.0222 12.9187 12.3333 12.7913C12.6444 12.6638 12.9778 12.6 13.3333 12.6C14.0741 12.6 14.7037 12.8625 15.2222 13.3875C15.7407 13.9125 16 14.55 16 15.3C16 16.05 15.7407 16.6875 15.2222 17.2125C14.7037 17.7375 14.0741 18 13.3333 18ZM13.3333 16.2C13.5852 16.2 13.7963 16.1137 13.9667 15.9412C14.137 15.7687 14.2222 15.555 14.2222 15.3C14.2222 15.045 14.137 14.8313 13.9667 14.6587C13.7963 14.4862 13.5852 14.4 13.3333 14.4C13.0815 14.4 12.8704 14.4862 12.7 14.6587C12.5296 14.8313 12.4444 15.045 12.4444 15.3C12.4444 15.555 12.5296 15.7687 12.7 15.9412C12.8704 16.1137 13.0815 16.2 13.3333 16.2ZM2.66667 9.9C2.91852 9.9 3.12963 9.81375 3.3 9.64125C3.47037 9.46875 3.55556 9.255 3.55556 9C3.55556 8.745 3.47037 8.53125 3.3 8.35875C3.12963 8.18625 2.91852 8.1 2.66667 8.1C2.41481 8.1 2.2037 8.18625 2.03333 8.35875C1.86296 8.53125 1.77778 8.745 1.77778 9C1.77778 9.255 1.86296 9.46875 2.03333 9.64125C2.2037 9.81375 2.41481 9.9 2.66667 9.9ZM13.3333 3.6C13.5852 3.6 13.7963 3.51375 13.9667 3.34125C14.137 3.16875 14.2222 2.955 14.2222 2.7C14.2222 2.445 14.137 2.23125 13.9667 2.05875C13.7963 1.88625 13.5852 1.8 13.3333 1.8C13.0815 1.8 12.8704 1.88625 12.7 2.05875C12.5296 2.23125 12.4444 2.445 12.4444 2.7C12.4444 2.955 12.5296 3.16875 12.7 3.34125C12.8704 3.51375 13.0815 3.6 13.3333 3.6Z"/>
    </symbol>

    <symbol id="icon-arrow" viewBox="0 0 24 24">
        <path d="M12 14.475L19.35 7.12499C19.6 6.87499 19.8958 6.75415 20.2375 6.76249C20.5792 6.77082 20.875 6.89999 21.125 7.14999C21.375 7.39999 21.5 7.69582 21.5 8.03749C21.5 8.37915 21.375 8.67499 21.125 8.92499L13.425 16.6C13.225 16.8 13 16.95 12.75 17.05C12.5 17.15 12.25 17.2 12 17.2C11.75 17.2 11.5 17.15 11.25 17.05C11 16.95 10.775 16.8 10.575 16.6L2.875 8.89999C2.625 8.64999 2.50417 8.35832 2.5125 8.02499C2.52083 7.69165 2.65 7.39999 2.9 7.14999C3.15 6.89999 3.44583 6.77499 3.7875 6.77499C4.12917 6.77499 4.425 6.89999 4.675 7.14999L12 14.475Z" fill="#54370D"/>
    </symbol>

    <symbol id="icon-copyright" viewBox="0 0 20 20">
        <path d="M9.99935 18.3334C8.84657 18.3334 7.76324 18.1147 6.74935 17.6772C5.73546 17.2397 4.85352 16.6459 4.10352 15.8959C3.35352 15.1459 2.75977 14.264 2.32227 13.2501C1.88477 12.2362 1.66602 11.1529 1.66602 10.0001C1.66602 8.8473 1.88477 7.76397 2.32227 6.75008C2.75977 5.73619 3.35352 4.85425 4.10352 4.10425C4.85352 3.35425 5.73546 2.7605 6.74935 2.323C7.76324 1.8855 8.84657 1.66675 9.99935 1.66675C11.1521 1.66675 12.2355 1.8855 13.2493 2.323C14.2632 2.7605 15.1452 3.35425 15.8952 4.10425C16.6452 4.85425 17.2389 5.73619 17.6764 6.75008C18.1139 7.76397 18.3327 8.8473 18.3327 10.0001C18.3327 11.1529 18.1139 12.2362 17.6764 13.2501C17.2389 14.264 16.6452 15.1459 15.8952 15.8959C15.1452 16.6459 14.2632 17.2397 13.2493 17.6772C12.2355 18.1147 11.1521 18.3334 9.99935 18.3334ZM9.99935 16.6667C11.8605 16.6667 13.4368 16.0209 14.7285 14.7292C16.0202 13.4376 16.666 11.8612 16.666 10.0001C16.666 8.13897 16.0202 6.56258 14.7285 5.27091C13.4368 3.97925 11.8605 3.33341 9.99935 3.33341C8.13824 3.33341 6.56185 3.97925 5.27018 5.27091C3.97852 6.56258 3.33268 8.13897 3.33268 10.0001C3.33268 11.8612 3.97852 13.4376 5.27018 14.7292C6.56185 16.0209 8.13824 16.6667 9.99935 16.6667ZM8.33268 13.3334H11.666C11.9021 13.3334 12.1 13.2536 12.2598 13.0938C12.4195 12.9341 12.4993 12.7362 12.4993 12.5001V11.6667C12.4993 11.4306 12.4195 11.2327 12.2598 11.073C12.1 10.9133 11.9021 10.8334 11.666 10.8334C11.4299 10.8334 11.232 10.9133 11.0723 11.073C10.9125 11.2327 10.8327 11.4306 10.8327 11.6667H9.16602V8.33341H10.8327C10.8327 8.56953 10.9125 8.76744 11.0723 8.92717C11.232 9.08689 11.4299 9.16675 11.666 9.16675C11.9021 9.16675 12.1 9.08689 12.2598 8.92717C12.4195 8.76744 12.4993 8.56953 12.4993 8.33341V7.50008C12.4993 7.26397 12.4195 7.06605 12.2598 6.90633C12.1 6.74661 11.9021 6.66675 11.666 6.66675H8.33268C8.09657 6.66675 7.89865 6.74661 7.73893 6.90633C7.57921 7.06605 7.49935 7.26397 7.49935 7.50008V12.5001C7.49935 12.7362 7.57921 12.9341 7.73893 13.0938C7.89865 13.2536 8.09657 13.3334 8.33268 13.3334Z"/>
    </symbol>

    <symbol id="icon-lightbulb" viewBox="0 0 43 42">
        <path transform="rotate(12)" transform-origin="21.5 21" d="M19.439 1.77151L19.9006 3.94338C20.0314 4.55874 19.936 5.11815 19.6144 5.6216C19.2927 6.12504 18.8288 6.4412 18.2225 6.57006C17.6163 6.69892 17.0639 6.5988 16.5653 6.2697C16.0667 5.94059 15.752 5.46836 15.6212 4.85299L15.1596 2.68112C15.0288 2.06576 15.1242 1.50635 15.4458 1.0029C15.7674 0.499457 16.2314 0.183298 16.8376 0.0544366C17.4439 -0.0744252 17.9963 0.0256996 18.4949 0.354804C18.9935 0.683908 19.3082 1.15614 19.439 1.77151ZM41.173 19.8518L39.0333 20.3066C38.427 20.4355 37.8746 20.3353 37.376 20.0062C36.8774 19.6771 36.5628 19.2049 36.432 18.5895C36.3012 17.9742 36.3966 17.4148 36.7182 16.9113C37.0398 16.4079 37.5038 16.0917 38.11 15.9628L40.2497 15.508C40.8559 15.3792 41.4084 15.4793 41.907 15.8084C42.4055 16.1375 42.7202 16.6097 42.851 17.2251C42.9818 17.8405 42.8864 18.3999 42.5648 18.9033C42.2432 19.4068 41.7792 19.7229 41.173 19.8518ZM4.79813 27.5835L2.65843 28.0383C2.05218 28.1672 1.49977 28.067 1.00117 27.7379C0.502585 27.4088 0.187889 26.9366 0.0570892 26.3212C-0.0737106 25.7059 0.0217037 25.1465 0.343329 24.643C0.664958 24.1396 1.12889 23.8234 1.73514 23.6946L3.87484 23.2398C4.48109 23.1109 5.0335 23.211 5.5321 23.5401C6.03069 23.8692 6.34538 24.3415 6.47618 24.9568C6.60698 25.5722 6.51157 26.1316 6.18994 26.635C5.86831 27.1385 5.40438 27.4546 4.79813 27.5835ZM6.78982 8.54616L8.61076 9.74811C9.08767 10.0629 9.39153 10.528 9.52233 11.1433C9.65313 11.7587 9.5647 12.3072 9.25706 12.7887C8.94942 13.2703 8.49248 13.5755 7.88623 13.7044C7.27998 13.8332 6.7384 13.7403 6.26149 13.4255L4.44054 12.2235C3.96363 11.9087 3.65977 11.4436 3.52898 10.8283C3.39818 10.2129 3.4866 9.66445 3.79424 9.18289C4.10188 8.70133 4.55883 8.39612 5.16508 8.26726C5.77133 8.1384 6.3129 8.23136 6.78982 8.54616ZM33.1125 6.1291L31.9379 7.96778C31.6302 8.44934 31.1733 8.75455 30.567 8.88341C29.9608 9.01227 29.4192 8.9193 28.9423 8.60451C28.4654 8.28971 28.1615 7.82463 28.0307 7.20927C27.8999 6.5939 27.9883 6.04544 28.296 5.56389L29.4706 3.72521C29.7783 3.24365 30.2352 2.93844 30.8414 2.80958C31.4477 2.68072 31.9893 2.77368 32.4662 3.08848C32.9431 3.40328 33.247 3.86836 33.3778 4.48372C33.5086 5.09908 33.4201 5.64754 33.1125 6.1291ZM19.1458 10.9138C22.1058 10.2847 24.8539 10.8072 27.3902 12.4813C29.9265 14.1554 31.5139 16.4947 32.1526 19.4991C32.5219 21.2366 32.4828 22.938 32.0354 24.6032C31.588 26.2684 30.8161 27.766 29.7197 29.0963L31.1047 35.6119C31.3586 36.8064 31.1569 37.9181 30.4997 38.9468C29.8424 39.9756 28.9254 40.6151 27.7486 40.8652L23.4692 41.7748C22.2923 42.025 21.1945 41.8138 20.1756 41.1413C19.1568 40.4688 18.5204 39.5352 18.2665 38.3407L16.8816 31.8251C15.3389 31.0558 14.0246 30.0016 12.9386 28.6623C11.8526 27.3231 11.1249 25.7847 10.7556 24.0472C10.117 21.0428 10.6157 18.2601 12.2518 15.6991C13.8879 13.138 16.1859 11.543 19.1458 10.9138ZM25.8558 31.9606C25.5146 32.1087 25.1695 32.2388 24.8206 32.3508C24.4717 32.4628 24.1189 32.5567 23.7623 32.6325C23.4057 32.7083 23.0452 32.766 22.6809 32.8057C22.3166 32.8453 21.9484 32.8668 21.5764 32.8702L22.5459 37.4311L26.8253 36.5215L25.8558 31.9606ZM20.0691 15.2576C18.286 15.6366 16.9051 16.5922 15.9262 18.1244C14.9473 19.6566 14.6503 21.3277 15.035 23.1376C15.4197 24.9475 16.3708 26.3532 17.8882 27.3549C19.4057 28.3565 21.0559 28.6678 22.839 28.2888C24.6221 27.9098 26.0031 26.9542 26.9819 25.4219C27.9608 23.8897 28.2579 22.2187 27.8732 20.4088C27.4885 18.5989 26.5374 17.1931 25.0199 16.1915C23.5025 15.1899 21.8522 14.8786 20.0691 15.2576Z" fill="#F1C953"/>
    </symbol>
</svg>


