<svg width="61" height="61" viewBox="0 0 61 61" fill="none" xmlns="http://www.w3.org/2000/svg">
<mask id="mask0_1_1160" style="mask-type:alpha" maskUnits="userSpaceOnUse" x="0" y="0" width="61" height="61">
<rect x="60.4022" y="48.583" width="50" height="50" transform="rotate(166.327 60.4022 48.583)" fill="#D9D9D9"/>
</mask>
<g mask="url(#mask0_1_1160)">
<path d="M30.2704 5.97027L30.7952 8.12774C30.944 8.73902 30.8649 9.30097 30.5581 9.8136C30.2513 10.3262 29.7968 10.6558 29.1946 10.8023C28.5924 10.9488 28.0373 10.8649 27.5293 10.5505C27.0213 10.236 26.6929 9.77321 26.5442 9.16192L26.0194 7.00446C25.8706 6.39317 25.9497 5.83122 26.2565 5.3186C26.5633 4.80597 27.0178 4.4764 27.62 4.32989C28.2222 4.18338 28.7773 4.26733 29.2853 4.58174C29.7933 4.89614 30.1217 5.35899 30.2704 5.97027ZM52.5231 23.4082L50.3976 23.9253C49.7954 24.0718 49.2403 23.9878 48.7323 23.6734C48.2243 23.359 47.8959 22.8962 47.7472 22.2849C47.5985 21.6736 47.6775 21.1117 47.9843 20.5991C48.2911 20.0864 48.7456 19.7569 49.3479 19.6104L51.4734 19.0933C52.0756 18.9467 52.6307 19.0307 53.1387 19.3451C53.6467 19.6595 53.975 20.1224 54.1237 20.7336C54.2724 21.3449 54.1934 21.9069 53.8866 22.4195C53.5798 22.9321 53.1253 23.2617 52.5231 23.4082ZM16.3895 32.1988L14.264 32.7159C13.6618 32.8624 13.1067 32.7784 12.5987 32.464C12.0907 32.1496 11.7624 31.6868 11.6136 31.0755C11.4649 30.4642 11.544 29.9023 11.8508 29.3896C12.1575 28.877 12.612 28.5474 13.2143 28.4009L15.3398 27.8838C15.942 27.7373 16.4971 27.8213 17.0051 28.1357C17.5131 28.4501 17.8414 28.9129 17.9902 29.5242C18.1389 30.1355 18.0598 30.6975 17.753 31.2101C17.4462 31.7227 16.9917 32.0523 16.3895 32.1988ZM17.8245 13.1114L19.6797 14.2597C20.1656 14.5604 20.4829 15.0164 20.6316 15.6277C20.7804 16.239 20.708 16.7898 20.4145 17.2801C20.1211 17.7704 19.6732 18.0889 19.071 18.2354C18.4688 18.3819 17.9247 18.3048 17.4388 18.004L15.5836 16.8558C15.0977 16.555 14.7804 16.099 14.6316 15.4878C14.4829 14.8765 14.5553 14.3257 14.8487 13.8353C15.1422 13.345 15.59 13.0266 16.1923 12.8801C16.7945 12.7335 17.3386 12.8107 17.8245 13.1114ZM44.0653 9.92673L42.9449 11.7989C42.6514 12.2893 42.2036 12.6077 41.6014 12.7542C40.9991 12.9007 40.4551 12.8236 39.9692 12.5229C39.4833 12.2221 39.166 11.7661 39.0173 11.1548C38.8685 10.5435 38.9409 9.99274 39.2344 9.5024L40.3548 7.63021C40.6483 7.13987 41.0961 6.82145 41.6983 6.67494C42.3005 6.52843 42.8446 6.60554 43.3305 6.90628C43.8164 7.20701 44.1337 7.66302 44.2824 8.27431C44.4311 8.88558 44.3588 9.43639 44.0653 9.92673ZM30.2443 15.1172C33.1846 14.4019 35.9468 14.8439 38.5309 16.4433C41.1151 18.0427 42.7701 20.3346 43.4962 23.3191C43.9161 25.0451 43.9268 26.7468 43.5281 28.4244C43.1295 30.1019 42.4017 31.6215 41.3447 32.9832L42.9193 39.4556C43.208 40.6422 43.0388 41.7592 42.4119 42.8068C41.785 43.8543 40.887 44.5203 39.718 44.8047L35.467 45.8389C34.298 46.1233 33.1944 45.9442 32.1564 45.3017C31.1183 44.6593 30.4549 43.7447 30.1663 42.5581L28.5916 36.0857C27.0272 35.3618 25.6827 34.3464 24.558 33.0394C23.4333 31.7325 22.6611 30.216 22.2412 28.49C21.5151 25.5055 21.9324 22.7094 23.493 20.1017C25.0536 17.494 27.3041 15.8325 30.2443 15.1172ZM37.5661 35.9591C37.2293 36.1172 36.8882 36.2573 36.5427 36.3794C36.1972 36.5016 35.8473 36.6057 35.493 36.6919C35.1388 36.7781 34.7802 36.8463 34.4172 36.8965C34.0542 36.9467 33.6868 36.979 33.315 36.9933L34.4173 41.5239L38.6683 40.4897L37.5661 35.9591ZM31.2941 19.4322C29.5228 19.8631 28.1703 20.8586 27.2366 22.4188C26.3029 23.9789 26.0548 25.658 26.4922 27.4558C26.9296 29.2537 27.9213 30.6311 29.4673 31.588C31.0134 32.5449 32.672 32.8079 34.4433 32.377C36.2145 31.9461 37.567 30.9505 38.5007 29.3904C39.4344 27.8302 39.6826 26.1512 39.2452 24.3533C38.8078 22.5554 37.8161 21.178 36.27 20.2211C34.724 19.2642 33.0653 19.0013 31.2941 19.4322Z" fill="#F1C953"/>
</g>
</svg>
