<svg width="48" height="48" viewBox="0 0 48 48" fill="none" xmlns="http://www.w3.org/2000/svg">
<mask id="mask0_1_1178" style="mask-type:alpha" maskUnits="userSpaceOnUse" x="0" y="0" width="48" height="48">
<rect width="48" height="48" fill="#D9D9D9"/>
</mask>
<g mask="url(#mask0_1_1178)">
<path d="M14.2001 22.7005C14.6668 21.7672 15.1501 20.8672 15.6501 20.0005C16.1501 19.1339 16.7001 18.2672 17.3001 17.4005L14.5001 16.8505L10.3001 21.0505L14.2001 22.7005ZM38.3001 8.95053C35.9668 9.01719 33.4751 9.70053 30.8251 11.0005C28.1751 12.3005 25.7668 14.0339 23.6001 16.2005C22.2001 17.6005 20.9501 19.1005 19.8501 20.7005C18.7501 22.3005 17.9334 23.8005 17.4001 25.2005L23.1001 30.8505C24.5001 30.3172 26.0001 29.5005 27.6001 28.4005C29.2001 27.3005 30.7001 26.0505 32.1001 24.6505C34.2668 22.4839 36.0001 20.0839 37.3001 17.4505C38.6001 14.8172 39.2834 12.3339 39.3501 10.0005C39.3501 9.86719 39.3251 9.73386 39.2751 9.60053C39.2251 9.46719 39.1501 9.35053 39.0501 9.25053C38.9501 9.15053 38.8334 9.07553 38.7001 9.02553C38.5668 8.97553 38.4334 8.95053 38.3001 8.95053ZM27.3001 20.9505C26.5334 20.1839 26.1501 19.2422 26.1501 18.1255C26.1501 17.0089 26.5334 16.0672 27.3001 15.3005C28.0668 14.5339 29.0168 14.1505 30.1501 14.1505C31.2834 14.1505 32.2334 14.5339 33.0001 15.3005C33.7668 16.0672 34.1501 17.0089 34.1501 18.1255C34.1501 19.2422 33.7668 20.1839 33.0001 20.9505C32.2334 21.7172 31.2834 22.1005 30.1501 22.1005C29.0168 22.1005 28.0668 21.7172 27.3001 20.9505ZM25.6001 34.0505L27.2501 38.0005L31.4501 33.8005L30.9001 31.0005C30.0334 31.6005 29.1668 32.1422 28.3001 32.6255C27.4334 33.1089 26.5334 33.5839 25.6001 34.0505ZM43.1501 7.35053C43.4168 11.0172 42.8168 14.5922 41.3501 18.0755C39.8834 21.5589 37.5668 24.8839 34.4001 28.0505L35.4001 33.0005C35.5334 33.6672 35.5001 34.3172 35.3001 34.9505C35.1001 35.5839 34.7668 36.1339 34.3001 36.6005L28.0001 42.9005C27.5001 43.4005 26.9001 43.5922 26.2001 43.4755C25.5001 43.3589 25.0168 42.9672 24.7501 42.3005L21.7001 35.1505L13.1501 26.6005L6.0001 23.5505C5.33343 23.2839 4.93343 22.8005 4.8001 22.1005C4.66676 21.4005 4.8501 20.8005 5.3501 20.3005L11.6501 14.0005C12.1168 13.5339 12.6751 13.2005 13.3251 13.0005C13.9751 12.8005 14.6334 12.7672 15.3001 12.9005L20.2501 13.9005C23.4168 10.7339 26.7418 8.41719 30.2251 6.95053C33.7084 5.48386 37.2834 4.88386 40.9501 5.15053C41.2168 5.18386 41.4834 5.25886 41.7501 5.37553C42.0168 5.49219 42.2501 5.65053 42.4501 5.85053C42.6501 6.05053 42.8084 6.28386 42.9251 6.55053C43.0418 6.81719 43.1168 7.08386 43.1501 7.35053ZM7.8501 31.9505C9.01676 30.7839 10.4418 30.1922 12.1251 30.1755C13.8084 30.1589 15.2334 30.7339 16.4001 31.9005C17.5668 33.0672 18.1418 34.4922 18.1251 36.1755C18.1084 37.8589 17.5168 39.2839 16.3501 40.4505C14.7501 42.0505 12.8584 43.0005 10.6751 43.3005C8.49176 43.6005 6.3001 43.9005 4.1001 44.2005C4.4001 42.0005 4.7001 39.8089 5.0001 37.6255C5.3001 35.4422 6.2501 33.5505 7.8501 31.9505ZM10.7001 34.7505C10.1334 35.3172 9.74176 36.0005 9.5251 36.8005C9.30843 37.6005 9.13343 38.4172 9.0001 39.2505C9.83343 39.1172 10.6501 38.9505 11.4501 38.7505C12.2501 38.5505 12.9334 38.1672 13.5001 37.6005C13.9001 37.2005 14.1168 36.7172 14.1501 36.1505C14.1834 35.5839 14.0001 35.1005 13.6001 34.7005C13.2001 34.3005 12.7168 34.1089 12.1501 34.1255C11.5834 34.1422 11.1001 34.3505 10.7001 34.7505Z" fill="#F1C953"/>
</g>
</svg>
