<svg width="40" height="40" viewBox="0 0 40 40" fill="none" xmlns="http://www.w3.org/2000/svg">
<mask id="mask0_803_156" style="mask-type:alpha" maskUnits="userSpaceOnUse" x="0" y="0" width="40" height="40">
<rect width="40" height="40" fill="#D9D9D9"/>
</mask>
<g mask="url(#mask0_803_156)">
<path d="M11.8327 18.9173C12.2216 18.1395 12.6243 17.3895 13.041 16.6672C13.4577 15.945 13.916 15.2228 14.416 14.5006L12.0827 14.0422L8.58268 17.5422L11.8327 18.9173ZM31.916 7.45892C29.9716 7.51447 27.8952 8.08392 25.6868 9.16725C23.4785 10.2506 21.4716 11.695 19.666 13.5006C18.4993 14.6672 17.4577 15.9172 16.541 17.2506C15.6243 18.5839 14.9438 19.8339 14.4993 21.0006L19.2493 25.7089C20.416 25.2645 21.666 24.5839 22.9993 23.6672C24.3327 22.7506 25.5827 21.7089 26.7493 20.5422C28.5549 18.7367 29.9994 16.7367 31.0827 14.5422C32.166 12.3478 32.7355 10.2784 32.791 8.33392C32.791 8.2228 32.7702 8.11169 32.7285 8.00058C32.6868 7.88947 32.6244 7.79225 32.541 7.70892C32.4577 7.62558 32.3605 7.56308 32.2494 7.52142C32.1382 7.47975 32.0271 7.45892 31.916 7.45892ZM22.7493 17.4589C22.1105 16.82 21.791 16.0353 21.791 15.1047C21.791 14.1742 22.1105 13.3895 22.7493 12.7506C23.3882 12.1117 24.1799 11.7922 25.1244 11.7922C26.0688 11.7922 26.8605 12.1117 27.4993 12.7506C28.1382 13.3895 28.4577 14.1742 28.4577 15.1047C28.4577 16.0353 28.1382 16.82 27.4993 17.4589C26.8605 18.0978 26.0688 18.4173 25.1244 18.4173C24.1799 18.4173 23.3882 18.0978 22.7493 17.4589ZM21.3327 28.3756L22.7077 31.6673L26.2077 28.1672L25.7494 25.8339C25.0271 26.3339 24.3049 26.7853 23.5827 27.1881C22.8605 27.5909 22.1105 27.9867 21.3327 28.3756ZM35.9577 6.12558C36.1799 9.18114 35.6799 12.1603 34.4577 15.0631C33.2355 17.9659 31.3049 20.7367 28.666 23.3756L29.4994 27.5006C29.6105 28.0561 29.5827 28.5978 29.416 29.1256C29.2494 29.6534 28.9716 30.1117 28.5827 30.5006L23.3327 35.7506C22.916 36.1672 22.416 36.327 21.8327 36.2298C21.2493 36.1325 20.8466 35.8061 20.6243 35.2506L18.0827 29.2922L10.9577 22.1672L4.99935 19.6256C4.44379 19.4034 4.11046 19.0006 3.99935 18.4173C3.88824 17.8339 4.04102 17.3339 4.45768 16.9172L9.70768 11.6672C10.0966 11.2784 10.5618 11.0006 11.1035 10.8339C11.6452 10.6672 12.1938 10.6395 12.7493 10.7506L16.8743 11.5839C19.5132 8.94503 22.2841 7.01447 25.1868 5.79225C28.0896 4.57003 31.0688 4.07003 34.1244 4.29225C34.3466 4.32003 34.5688 4.38253 34.791 4.47975C35.0132 4.57697 35.2077 4.70892 35.3744 4.87558C35.541 5.04225 35.673 5.23669 35.7702 5.45892C35.8674 5.68114 35.9299 5.90336 35.9577 6.12558ZM6.54102 26.6256C7.51324 25.6534 8.70074 25.1603 10.1035 25.1464C11.5063 25.1325 12.6938 25.6117 13.666 26.5839C14.6382 27.5561 15.1174 28.7436 15.1035 30.1464C15.0896 31.5492 14.5966 32.7367 13.6243 33.7089C12.291 35.0422 10.7146 35.8339 8.89518 36.0839C7.07574 36.3339 5.24935 36.5839 3.41602 36.8339C3.66602 35.0006 3.91602 33.1742 4.16602 31.3548C4.41602 29.5353 5.20768 27.9589 6.54102 26.6256ZM8.91602 28.9589C8.44379 29.4311 8.1174 30.0006 7.93685 30.6672C7.75629 31.3339 7.61046 32.0145 7.49935 32.7089C8.19379 32.5978 8.87435 32.4589 9.54102 32.2923C10.2077 32.1256 10.7771 31.8061 11.2493 31.3339C11.5827 31.0006 11.7632 30.5978 11.791 30.1256C11.8188 29.6534 11.666 29.2506 11.3327 28.9173C10.9993 28.5839 10.5966 28.4242 10.1243 28.4381C9.65213 28.452 9.24935 28.6256 8.91602 28.9589Z" fill="#4EA487"/>
</g>
</svg>
